<?xml version="1.0" standalone="no"?>
<!DOCTYPE svg PUBLIC "-//W3C//DTD SVG 20010904//EN"
 "http://www.w3.org/TR/2001/REC-SVG-20010904/DTD/svg10.dtd">
<svg version="1.0" xmlns="http://www.w3.org/2000/svg"
 width="607.000000pt" height="607.000000pt" viewBox="0 0 607.000000 607.000000"
 preserveAspectRatio="xMidYMid meet">
<metadata>
Created by potrace 1.11, written by Peter Selinger 2001-2013
</metadata>
<g transform="translate(0.000000,607.000000) scale(0.100000,-0.100000)"
fill="#000000" stroke="none">
<path d="M4429 6046 c-129 -45 -235 -137 -331 -286 -26 -41 -58 -99 -70 -129
l-23 -53 -45 6 c-119 17 -381 28 -523 22 -758 -31 -1413 -265 -1693 -604 -30
-37 -77 -112 -103 -167 l-49 -100 -69 -18 c-92 -24 -266 -96 -344 -142 -189
-113 -301 -247 -344 -410 -42 -162 7 -349 124 -477 67 -74 126 -101 203 -96
67 5 94 25 135 100 16 30 37 51 57 60 72 30 377 2 518 -48 115 -41 315 -64
558 -64 179 0 383 -14 455 -31 141 -33 189 -96 165 -216 -23 -109 -100 -158
-499 -312 -565 -220 -728 -341 -856 -641 -49 -114 -81 -215 -106 -335 -11 -55
-22 -101 -23 -102 -2 -2 -24 6 -50 18 -72 31 -140 35 -211 11 -33 -11 -60 -20
-61 -19 -1 1 -18 29 -39 62 -108 172 -202 235 -254 169 -32 -40 -27 -71 18
-113 50 -46 106 -121 137 -183 l25 -49 -32 -44 c-18 -25 -38 -45 -45 -45 -6 0
-39 29 -72 65 -71 76 -130 187 -139 263 -6 55 -35 92 -73 92 -27 0 -68 -38
-75 -70 -15 -70 49 -227 143 -351 45 -59 49 -68 23 -47 -44 37 -92 38 -120 2
-12 -15 -21 -35 -21 -46 0 -10 33 -53 73 -96 77 -83 135 -164 160 -224 14 -32
14 -41 0 -80 -8 -23 -16 -45 -18 -47 -2 -2 -24 8 -49 23 -87 51 -199 222 -213
324 -8 61 -18 81 -50 93 -53 20 -103 -23 -103 -90 0 -102 116 -314 224 -409
70 -62 125 -86 190 -86 88 0 163 18 191 44 14 13 33 49 43 79 11 36 31 71 58
98 39 41 43 43 101 43 64 0 117 -15 200 -56 l51 -26 32 -102 c55 -173 137
-314 237 -407 27 -26 104 -87 172 -138 734 -548 1418 -758 2001 -617 669 163
1173 771 1399 1688 48 191 74 342 98 551 24 213 24 684 0 895 -120 1056 -545
1865 -1217 2312 -36 24 -66 44 -68 46 -7 5 48 102 91 160 52 70 92 104 162
135 157 69 345 -77 345 -269 0 -37 6 -50 34 -78 37 -37 74 -44 120 -22 79 35
85 182 14 328 -38 78 -141 186 -213 222 -123 63 -243 74 -356 34z m-2678
-1808 c66 -238 91 -344 83 -346 -7 -2 -50 4 -96 13 -114 23 -331 31 -396 16
-73 -18 -137 -62 -173 -121 -35 -57 -46 -57 -98 7 -92 111 -111 264 -49 393
51 105 199 225 365 294 79 34 232 84 258 85 6 1 53 -153 106 -341z m530 292
c69 -19 116 -97 98 -164 -11 -39 -55 -83 -96 -97 -100 -33 -210 65 -182 164
11 40 55 85 95 97 39 11 44 11 85 0z m-823 -2730 c78 -41 82 -47 86 -139 4
-81 4 -83 -17 -77 -191 55 -316 43 -425 -40 -18 -14 -35 -24 -37 -23 -2 2 -24
33 -50 69 -26 36 -61 80 -78 98 -37 39 -28 42 19 6 41 -31 156 -74 199 -74 42
0 65 19 119 94 77 108 112 125 184 86z"/>
</g>
</svg>
