<?xml version="1.0" encoding="UTF-8" standalone="no"?>
<svg
   xmlns:dc="http://purl.org/dc/elements/1.1/"
   xmlns:cc="http://creativecommons.org/ns#"
   xmlns:rdf="http://www.w3.org/1999/02/22-rdf-syntax-ns#"
   xmlns:svg="http://www.w3.org/2000/svg"
   xmlns="http://www.w3.org/2000/svg"
   width="501.53766"
   height="607.05383"
   viewBox="0 0 501.53766 607.05385"
   id="svg2"
   version="1.1">
  <defs
     id="defs4" />
  <metadata
     id="metadata7">
    <rdf:RDF>
      <cc:Work
         rdf:about="">
        <dc:format>image/svg+xml</dc:format>
        <dc:type
           rdf:resource="http://purl.org/dc/dcmitype/StillImage" />
        <dc:title></dc:title>
      </cc:Work>
    </rdf:RDF>
  </metadata>
  <g
     id="layer1"
     transform="translate(-11.129294,-627.68296)"
     style="display:inline">
    <g
       id="g4891">
      <path
         id="path4140"
         transform="translate(13.431568,630.56751)"
         d="m 121.92969,112.6875 c -18.73974,28.02576 -23.175774,72.58841 -5.05078,101.01562 27.0006,42.34772 158.02168,-8.49259 139.60351,56.67383 -7.95355,28.14095 -97.67396,34.5076 -126.0039,75.65039 -28.36767,41.19759 -37.392442,140.49651 8.98046,177.20704 C 494.20569,804.0652 602.26128,205.07685 367.39648,58.140625 294.55557,37.664923 161.68764,57.099009 121.92969,112.6875 Z"
         style="fill:#4cca58;fill-opacity:1;fill-rule:evenodd;stroke:#4cca58;stroke-width:14;stroke-linecap:butt;stroke-linejoin:miter;stroke-miterlimit:4;stroke-dasharray:none;stroke-opacity:1" />
      <path
         id="path4142"
         d="M 122.22846,768.50929 C 15.21783,795.18864 51.784997,864.3908 71.794895,867.5656 c 20.009897,3.1748 -8.47913,-31.22163 74.555395,-12.28471"
         style="fill:#ffffff;fill-opacity:1;fill-rule:evenodd;stroke:#4cca58;stroke-width:16.5;stroke-linecap:round;stroke-linejoin:miter;stroke-miterlimit:4;stroke-dasharray:none;stroke-opacity:1" />
      <path
         id="path4144"
         d="m 368.70568,682.64633 c 31.69386,-76.87208 87.58867,-36.14946 83.62704,-3.94815"
         style="fill:none;fill-rule:evenodd;stroke:#4cca58;stroke-width:22.10000038;stroke-linecap:round;stroke-linejoin:miter;stroke-miterlimit:4;stroke-dasharray:none;stroke-opacity:1" />
      <path
         id="path4150"
         d="m 158.95306,1122.7727 c -84.271429,-78.8356 -94.70401,-13.035 -94.70401,-13.035"
         style="fill:none;fill-rule:evenodd;stroke:#4cca58;stroke-width:22.60000038;stroke-linecap:round;stroke-linejoin:miter;stroke-miterlimit:4;stroke-dasharray:none;stroke-opacity:1" />
      <path
         id="path4152"
         d="m 139.82203,1069.9879 c -33.50756,-33.1514 -45.734165,-40.5873 -65.891055,-8.1113"
         style="fill:none;fill-rule:evenodd;stroke:#4cca58;stroke-width:22.39999962;stroke-linecap:round;stroke-linejoin:miter;stroke-miterlimit:4;stroke-dasharray:none;stroke-opacity:1" />
      <path
         d="m 190.05067,794.77283 a 7.0680003,6.2826667 0 0 1 -6.92724,6.28142 7.0680003,6.2826667 0 0 1 -7.20316,-6.03122 7.0680003,6.2826667 0 0 1 6.64033,-6.52166 7.0680003,6.2826667 0 0 1 7.46765,5.77146 l -7.04558,0.5 z"
         id="path4156"
         style="fill:#4cca58;fill-opacity:1;fill-rule:evenodd;stroke:#ffffff;stroke-width:15;stroke-linecap:round;stroke-linejoin:round;stroke-miterlimit:4;stroke-dasharray:none;stroke-dashoffset:0;stroke-opacity:1" />
      <path
         id="path4187"
         d="m 38.740408,1062.6466 c 12.024317,8.8728 35.912332,41.0505 20.495033,50.8801 -16.617509,10.5949 -42.728707,-30.0436 -40.39785,-43.1688"
         style="fill:none;fill-rule:evenodd;stroke:#4cca58;stroke-width:15;stroke-linecap:round;stroke-linejoin:miter;stroke-miterlimit:4;stroke-dasharray:none;stroke-opacity:1" />
      <path
         id="path4187-3"
         d="m 59.491028,1014.8722 c 12.024317,8.8728 30.344345,38.6482 16.080423,47.1508 -16.67061,9.9371 -41.864445,-29.6183 -39.533588,-42.7435"
         style="fill:none;fill-rule:evenodd;stroke:#4cca58;stroke-width:15;stroke-linecap:round;stroke-linejoin:miter;stroke-miterlimit:4;stroke-dasharray:none;stroke-opacity:1" />
    </g>
  </g>
</svg>
